<?xml version="1.0" encoding="utf-8"?>
<!-- Generator: Adobe Illustrator 23.1.0, SVG Export Plug-In . SVG Version: 6.00 Build 0)  -->
<svg version="1.1" id="Слой_1" xmlns="http://www.w3.org/2000/svg" xmlns:xlink="http://www.w3.org/1999/xlink" x="0px" y="0px"
	 viewBox="0 0 800 800" style="enable-background:new 0 0 800 800;" xml:space="preserve">
<style type="text/css">
	.st0{fill-rule:evenodd;clip-rule:evenodd;fill:#FFFFFF;}
</style>
<path class="st0" d="M356.3,125C298.8,125,250,174.5,250,238.5v276.9c0,89.4,68.4,159.6,150,159.6c81.6,0,150-70.2,150-159.6V263.5
	c0-13.8,11.2-25,25-25h0c13.8,0,25,11.2,25,25v251.9C600,629.9,511.7,725,400,725s-200-95.1-200-209.6V238.5
	c0-89,68.7-163.5,156.3-163.5c87.5,0,156.3,74.5,156.3,163.5v276.9c0,63.5-49.1,117.3-112.5,117.3s-112.5-53.8-112.5-117.3V263.5
	c0-13.8,11.2-25,25-25h0c13.8,0,25,11.2,25,25v251.9c0,38.5,29.2,67.3,62.5,67.3s62.5-28.9,62.5-67.3V238.5
	C462.5,174.5,413.7,125,356.3,125z"/>
</svg>
