<?xml version="1.0" encoding="utf-8"?>
<!-- Generator: Adobe Illustrator 23.0.2, SVG Export Plug-In . SVG Version: 6.00 Build 0)  -->
<svg version="1.1" xmlns="http://www.w3.org/2000/svg" xmlns:xlink="http://www.w3.org/1999/xlink" x="0px" y="0px"
	 viewBox="0 0 595.28 595.28" style="enable-background:new 0 0 595.28 595.28;" xml:space="preserve">
<style type="text/css">
	.st0{display:none;}
	.st1{display:inline;fill:#FFFFFF;}
	.st2{display:inline;fill:#53BB6F;}
	.st3{display:inline;fill:#87489C;}
	.st4{fill:#FFFFFF;}
</style>
<g id="Слой_1">
	<g class="st0">
		<path class="st1" d="M0,297.64c0,94.99,44.5,179.58,113.78,234.07V63.56C44.5,118.06,0,202.65,0,297.64z"/>
		<path class="st1" d="M349.11,156.88h210.84c-15.85-29.48-36.53-55.98-60.98-78.44H349.11V156.88z"/>
		<path class="st1" d="M349.11,590.83c139.85-24.38,246.17-146.36,246.17-293.19c0-21.37-2.27-42.21-6.55-62.31H349.11V590.83z"/>
		<path class="st2" d="M192.22,19.23c-28.49,10.79-54.9,25.82-78.44,44.33v468.15c23.54,18.52,49.95,33.54,78.44,44.33V19.23z"/>
		<path class="st3" d="M192.22,576.04c24.74,9.37,51.06,15.54,78.44,18V1.23c-27.39,2.46-53.7,8.63-78.44,18V576.04z"/>
		<path class="st2" d="M270.66,595.28h26.97c-9.09,0-18.09-0.43-26.97-1.23V595.28z"/>
		<path class="st2" d="M348.2,235.33v-78.44h0.9V78.44h-0.9V4.3C331.77,1.48,314.88,0,297.64,0c-9.09,0-18.09,0.43-26.97,1.23
			v592.82c8.89,0.8,17.88,1.23,26.97,1.23c17.55,0,34.75-1.53,51.47-4.45v-355.5H348.2z"/>
		<path class="st2" d="M349.11,78.44h149.86c-41.01-37.69-92.63-64.02-149.86-74V78.44z"/>
		<path class="st2" d="M348.2,78.44h0.9v-74c-0.3-0.05-0.6-0.1-0.9-0.15V78.44z"/>
		<path class="st2" d="M349.11,235.33h239.62c-5.92-27.78-15.7-54.12-28.78-78.44H349.11V235.33z"/>
		<rect x="348.2" y="156.88" class="st2" width="0.9" height="78.44"/>
	</g>
	<g>
		<polygon class="st4" points="0,86.49 0,595.28 86.49,595.28 86.49,86.49 86.49,0 0,0 		"/>
		<path class="st4" d="M595.28,86.49V0H297.64h-86.49h-19.08h-86.49v86.49v508.78h86.49V86.49V0.05h19.08v86.45v167.9v86.49v254.39
			h86.49V340.89h297.64v-86.49H465.53c-92.73,0-167.9-75.17-167.9-167.9v0H595.28z"/>
	</g>
</g>
<g id="Слой_2">
</g>
</svg>
