<?xml version="1.0" encoding="utf-8"?>
<!-- Generator: Adobe Illustrator 23.1.0, SVG Export Plug-In . SVG Version: 6.00 Build 0)  -->
<svg version="1.1" id="Слой_1" xmlns="http://www.w3.org/2000/svg" xmlns:xlink="http://www.w3.org/1999/xlink" x="0px" y="0px"
	 viewBox="0 0 800 800" style="enable-background:new 0 0 800 800;" xml:space="preserve">
<style type="text/css">
	.st0{fill:none;stroke:#FFFFFF;stroke-width:66.6667;stroke-linecap:round;stroke-linejoin:round;stroke-miterlimit:133.3333;}
</style>
<path class="st0" d="M383.3,400H180.6 M174.9,426.6l-33.5,100c-18.3,54.8-27.5,82.2-20.9,99.1c5.7,14.7,18,25.8,33.1,30
	c17.4,4.9,43.8-7,96.5-30.7l337.8-152c51.4-23.1,77.2-34.7,85.1-50.8c6.9-14,6.9-30.4,0-44.3c-7.9-16.1-33.7-27.6-85.1-50.8
	L249.5,174.8c-52.5-23.6-78.8-35.5-96.2-30.6c-15.1,4.2-27.4,15.3-33.1,29.9c-6.6,16.8,2.5,44.2,20.6,98.9L174.9,376
	c3.1,9.4,4.7,14.1,5.3,18.9c0.5,4.3,0.5,8.6,0,12.8C179.6,412.5,178,417.2,174.9,426.6z"/>
</svg>
