<?xml version="1.0" encoding="utf-8"?>
<!-- Generator: Adobe Illustrator 23.1.0, SVG Export Plug-In . SVG Version: 6.00 Build 0)  -->
<svg version="1.1" id="Layer_1" xmlns="http://www.w3.org/2000/svg" xmlns:xlink="http://www.w3.org/1999/xlink" x="0px" y="0px"
	 viewBox="0 0 800 800" style="enable-background:new 0 0 800 800;" xml:space="preserve">
<style type="text/css">
	.st0{fill-rule:evenodd;clip-rule:evenodd;fill:#FFFFFF;}
</style>
<path class="st0" d="M33.3,617c0-178,130.1-324.6,300-355.4v-77.8c0-62.4,71.8-97.5,121-59.2l278.1,216.3c38.6,30,38.6,88.4,0,118.4
	L454.4,675.5c-49.3,38.3-121,3.2-121-59.2v-65.7c-75.3,14.5-134.6,53.2-169.1,105.5c-19.9,30.1-54.1,36.3-78.9,29.3
	C60.2,678.4,33.3,654.4,33.3,617z M413.4,177.1c-5.5-4.3-13.5-0.4-13.5,6.6v130.2c0,4.6-3.8,8.3-8.4,8.4
	c-121.9,3.3-225.7,78-269.5,183.2c-6.6,15.8-11.8,32.3-15.5,49.4c-4.1,19-6.4,38.7-6.6,58.8c0,1.1,0,2.1,0,3.2
	c0,4.5,6.1,6.2,8.6,2.4c0.5-0.8,1.1-1.6,1.6-2.4c0,0,0,0,0,0c10.9-16.1,23.4-31.1,37.4-44.7c9.5-9.3,19.7-17.9,30.4-25.9
	c57.2-42.5,131.5-67,213.6-68.5c4.6-0.1,8.3,3.7,8.3,8.3v130.2c0,6.9,8,10.8,13.4,6.6l278.1-216.3c4.3-3.3,4.3-9.8,0-13.2
	L413.4,177.1z"/>
</svg>
